<?xml version="1.0" standalone="no"?>
<!DOCTYPE svg PUBLIC "-//W3C//DTD SVG 20010904//EN"
 "http://www.w3.org/TR/2001/REC-SVG-20010904/DTD/svg10.dtd">
<svg version="1.0" xmlns="http://www.w3.org/2000/svg"
 width="348.000000pt" height="348.000000pt" viewBox="0 0 348.000000 348.000000"
 preserveAspectRatio="xMidYMid meet">
<metadata>
Created by potrace 1.16, written by Peter Selinger 2001-2019
</metadata>
<g transform="translate(0.000000,348.000000) scale(0.100000,-0.100000)"
fill="#000000" stroke="none">
<path d="M2721 3367 c-52 -56 -127 -137 -167 -179 l-73 -77 -78 36 c-450 208
-948 198 -1381 -28 -181 -94 -323 -204 -447 -346 -257 -294 -393 -661 -395
-1062 l0 -74 58 6 c31 4 111 9 178 13 l121 7 6 121 c17 329 142 606 372 825
162 154 365 259 595 307 116 25 344 25 458 0 82 -17 206 -56 238 -74 13 -7
-17 -44 -175 -213 -104 -112 -189 -205 -187 -206 3 -3 1047 28 1061 32 7 2 0
122 -21 356 -18 195 -38 423 -45 507 -7 83 -15 152 -18 151 -4 0 -48 -46 -100
-102z"/>
<path d="M3089 1827 l-146 -9 -6 -122 c-14 -263 -89 -474 -241 -677 -310 -412
-844 -577 -1336 -414 -41 14 -81 29 -88 34 -10 6 38 63 177 212 177 189 189
204 163 206 -15 2 -256 -5 -537 -15 l-510 -17 3 -30 c1 -16 20 -229 42 -473
22 -244 40 -459 40 -479 0 -19 4 -33 9 -31 4 2 50 48 101 103 51 55 127 135
168 178 l76 78 95 -44 c302 -141 646 -179 972 -107 312 68 619 244 820 471
267 299 407 669 409 1077 l0 72 -32 -2 c-18 0 -99 -6 -179 -11z"/>
</g>
</svg>
